<svg width="49" height="54" viewBox="0 0 49 54" fill="none" xmlns="http://www.w3.org/2000/svg">
<path d="M35.228 0.346714H16.3754C16.0411 0.3472 15.7126 0.434041 15.4217 0.598846C15.1309 0.763602 14.8875 1.00074 14.7153 1.28722C14.5429 1.5737 14.4476 1.89982 14.4384 2.23399C14.4292 2.56816 14.5065 2.89903 14.6628 3.19454L16.55 6.76523H13.1297C12.7965 6.76523 12.4769 6.89758 12.2412 7.13326C12.0056 7.3689 11.8732 7.68852 11.8732 8.02176C11.8724 8.22645 11.9224 8.42817 12.0188 8.60879L18.0831 20.0874C18.1602 20.2334 18.2653 20.3624 18.3924 20.4677C18.5195 20.573 18.666 20.6526 18.8237 20.7011C18.9814 20.7496 19.1468 20.7671 19.3113 20.7515C19.4757 20.736 19.6353 20.6885 19.7809 20.6113C20.005 20.4939 20.1879 20.3115 20.3048 20.0874L21.9544 16.9873L24.0211 20.9024C24.187 21.2129 24.4335 21.4725 24.7352 21.6534C25.037 21.8349 25.3819 21.9304 25.7337 21.9304C26.0859 21.9304 26.4308 21.8349 26.7326 21.6534C27.0343 21.4725 27.2808 21.2129 27.4462 20.9024L36.8969 3.13632C37.0541 2.84804 37.1332 2.52377 37.1264 2.19561C37.1201 1.86746 37.0279 1.54668 36.8591 1.265C36.6907 0.983326 36.4516 0.750454 36.1658 0.589433C35.8796 0.428364 35.5565 0.344725 35.228 0.346714ZM26.7622 7.94414L22.6869 15.6143C22.5831 15.8098 22.4055 15.9568 22.194 16.0218C21.982 16.0873 21.753 16.0665 21.5565 15.9636C21.4066 15.8865 21.2848 15.7642 21.2072 15.6143L17.171 7.9878C17.0682 7.79142 17.0472 7.56238 17.1126 7.35056C17.1781 7.13879 17.3246 6.96152 17.5203 6.85741C17.6399 6.79405 17.7732 6.76077 17.9085 6.76038H26.0442C26.2596 6.76164 26.4658 6.84809 26.6176 7.00077C26.7695 7.15349 26.8548 7.36007 26.8544 7.57543C26.8558 7.70724 26.8238 7.83726 26.7622 7.95384V7.94414Z" fill="#F71963"/>
<path d="M1.69561 53V36.0639H8.37743C9.66197 36.0639 10.7563 36.3092 11.6604 36.7999C12.5646 37.285 13.2537 37.9604 13.7278 38.8259C14.2075 39.686 14.4473 40.6783 14.4473 41.803C14.4473 42.9277 14.2047 43.92 13.7196 44.78C13.2344 45.6401 12.5315 46.3099 11.6108 46.7895C10.6957 47.2692 9.58754 47.509 8.28646 47.509H4.02763V44.6395H7.70759C8.39672 44.6395 8.96457 44.5209 9.41112 44.2839C9.86319 44.0413 10.1995 43.7078 10.42 43.2832C10.646 42.8532 10.7591 42.3598 10.7591 41.803C10.7591 41.2407 10.646 40.75 10.42 40.331C10.1995 39.9065 9.86319 39.5785 9.41112 39.3469C8.95905 39.1099 8.3857 38.9913 7.69105 38.9913H5.27633V53H1.69561ZM32.3365 44.532C32.3365 46.3788 31.9864 47.95 31.2862 49.2456C30.5916 50.5412 29.6433 51.5308 28.4415 52.2144C27.2452 52.8925 25.9 53.2315 24.4059 53.2315C22.9009 53.2315 21.5502 52.8897 20.3538 52.2061C19.1575 51.5225 18.212 50.5329 17.5174 49.2373C16.8227 47.9418 16.4754 46.3733 16.4754 44.532C16.4754 42.6851 16.8227 41.1139 17.5174 39.8183C18.212 38.5227 19.1575 37.5359 20.3538 36.8578C21.5502 36.1742 22.9009 35.8324 24.4059 35.8324C25.9 35.8324 27.2452 36.1742 28.4415 36.8578C29.6433 37.5359 30.5916 38.5227 31.2862 39.8183C31.9864 41.1139 32.3365 42.6851 32.3365 44.532ZM28.7061 44.532C28.7061 43.3356 28.5269 42.3267 28.1686 41.5053C27.8158 40.6838 27.3168 40.0609 26.6718 39.6364C26.0268 39.2119 25.2715 38.9996 24.4059 38.9996C23.5404 38.9996 22.7851 39.2119 22.1401 39.6364C21.495 40.0609 20.9934 40.6838 20.635 41.5053C20.2822 42.3267 20.1058 43.3356 20.1058 44.532C20.1058 45.7283 20.2822 46.7372 20.635 47.5586C20.9934 48.3801 21.495 49.003 22.1401 49.4275C22.7851 49.852 23.5404 50.0643 24.4059 50.0643C25.2715 50.0643 26.0268 49.852 26.6718 49.4275C27.3168 49.003 27.8158 48.3801 28.1686 47.5586C28.5269 46.7372 28.7061 45.7283 28.7061 44.532ZM44.1764 40.9347C44.1103 40.2676 43.8263 39.7494 43.3247 39.38C42.823 39.0106 42.1421 38.8259 41.2821 38.8259C40.6977 38.8259 40.2043 38.9086 39.8018 39.074C39.3994 39.2339 39.0906 39.4572 38.8756 39.7439C38.6661 40.0305 38.5614 40.3558 38.5614 40.7197C38.5504 41.0229 38.6138 41.2875 38.7516 41.5136C38.8949 41.7396 39.0906 41.9353 39.3387 42.1007C39.5868 42.2606 39.8735 42.4012 40.1988 42.5224C40.524 42.6382 40.8713 42.7375 41.2407 42.8202L42.7623 43.184C43.5011 43.3494 44.1792 43.5699 44.7966 43.8456C45.4141 44.1212 45.9489 44.4603 46.4009 44.8627C46.853 45.2652 47.2031 45.7393 47.4512 46.2851C47.7048 46.8309 47.8343 47.4566 47.8398 48.1623C47.8343 49.1988 47.5697 50.0974 47.046 50.8582C46.5277 51.6135 45.778 52.2006 44.7966 52.6196C43.8208 53.0331 42.6438 53.2398 41.2655 53.2398C39.8983 53.2398 38.7075 53.0303 37.6931 52.6113C36.6842 52.1923 35.8958 51.5721 35.328 50.7507C34.7656 49.9237 34.4707 48.901 34.4431 47.6827H37.9081C37.9467 48.2505 38.1093 48.7246 38.396 49.105C38.6882 49.4799 39.0768 49.7638 39.562 49.9568C40.0527 50.1442 40.6067 50.238 41.2242 50.238C41.8306 50.238 42.3571 50.1498 42.8037 49.9733C43.2557 49.7969 43.6058 49.5516 43.8539 49.2373C44.102 48.9231 44.226 48.562 44.226 48.154C44.226 47.7736 44.113 47.4539 43.887 47.1948C43.6665 46.9356 43.3412 46.7151 42.9112 46.5332C42.4867 46.3513 41.9657 46.1859 41.3482 46.037L39.5041 45.5739C38.0762 45.2266 36.9488 44.6836 36.1219 43.9448C35.2949 43.2061 34.8842 42.211 34.8897 40.9595C34.8842 39.9341 35.1571 39.0382 35.7084 38.2719C36.2652 37.5056 37.0288 36.9074 37.999 36.4774C38.9693 36.0474 40.072 35.8324 41.3069 35.8324C42.5639 35.8324 43.661 36.0474 44.5982 36.4774C45.5409 36.9074 46.2741 37.5056 46.7979 38.2719C47.3216 39.0382 47.5918 39.9258 47.6083 40.9347H44.1764Z" fill="#F71963"/>
</svg>
